# xmcd
#
# Track frame offsets:
#	150
#	11591
#	28538
#	42827
#	55333
#	70374
#	82502
#	93217
#	106655
#	118062
#	127713
#	141504
#	153708
#	164151
#	178813
#	187796
#	198226
#	211478
#
# Disc length: 2992 seconds
#
# Revision: 2
# Processed by: cddbd v1.5.2PL0 Copyright (c) Steve Scherf et al.
# Submitted via: EZCDAudioConverter 2.1.7.1
#
DISCID=ef0bae12
DTITLE=V/A - Treacle Toffee World
DYEAR=2008
DGENRE=
TTITLE0=Fire - Father's Name Is Dad
TTITLE1=Sands - Listen To The Sky
TTITLE2=Grapefruit - Trying To Make It To Monday
TTITLE3=Rawlings and Huckstep - Forgive And Forget
TTITLE4=Gallagher and Lyle - Goodbye Mozart
TTITLE5=Fire - Spare A Copper
TTITLE6=Rawlings and Huckstep - Even The Sun Shines Cold
TTITLE7=Iveys - Bittersweet Adieu
TTITLE8=Denis Couldry - Tea And Toast Mr. Watson
TTITLE9=Fire - Treacle Toffee World
TTITLE10=Grapefruit - Fall Of The Castle
TTITLE11=Denis Couldry - Penny For The Wind
TTITLE12=23rd Turnoff - Another Vincent Van Gogh [Alternate Version]
TTITLE13=Rawlings and Huckstep - Thinking Pictures
TTITLE14=Iveys - How Does It Feel
TTITLE15=Fire - Will I Find Love
TTITLE16=Legay - Fantastic Story Of The Steam Driven Banana
TTITLE17=Grapefruit - This Little Man [Alternate Version]
EXTD=
EXTT0=
EXTT1=
EXTT2=
EXTT3=
EXTT4=
EXTT5=
EXTT6=
EXTT7=
EXTT8=
EXTT9=
EXTT10=
EXTT11=
EXTT12=
EXTT13=
EXTT14=
EXTT15=
EXTT16=
EXTT17=
PLAYORDER=
